<svg width="1268" height="1033" viewBox="0 0 1268 1033" fill="none" xmlns="http://www.w3.org/2000/svg">
<path d="M908.717 716.594C919.978 716.594 930.484 717.349 940.234 718.859C950.122 720.233 957.196 721.675 961.453 723.186L967.633 725.452V784.368C956.509 779.287 941.264 776.746 921.9 776.746V782.102C939.754 783.475 952.595 787.046 960.423 792.813C968.251 798.581 972.165 807.302 972.165 818.976C972.165 832.984 966.465 843.833 955.066 851.523C943.668 859.214 926.09 863.06 902.331 863.06C888.735 863.06 876.718 862.305 866.281 860.794C855.844 859.146 848.839 857.566 845.269 856.056L839.707 853.584V802.29C840.943 802.839 842.797 803.594 845.269 804.556C847.741 805.517 853.234 806.753 861.749 808.264C870.401 809.774 879.671 810.529 889.559 810.529V805.586C872.804 804.35 860.17 800.779 851.655 794.874C843.141 788.969 838.883 778.668 838.883 763.974C838.883 749.279 844.72 737.744 856.393 729.366C868.066 720.852 885.507 716.594 908.717 716.594ZM826.864 861H756V718.654H826.864V861ZM1096.67 778.6H1052.18V786.84H1096.67V799.817H1052.18V808.058H1098.53V861H981.312V718.654H1096.67V778.6ZM552.36 572.6H507.864V580.84H552.36V593.817H507.864V602.058H554.214V655H437V512.654H552.36V572.6ZM640.729 512.654C665.312 512.654 683.371 516.705 694.907 524.808C706.443 532.773 712.211 546.644 712.211 566.42C712.211 581.389 707.336 592.445 697.585 599.586C705.825 614.281 712.074 632.752 716.331 655H648.558C647.459 641.129 645.536 628.907 642.789 618.332L641.348 613.388H636.815V655H565.951V512.654H640.729ZM849.561 572.6H824.428V655H747.384V572.6H722.664V512.654H849.561V572.6ZM636.815 596.702H642.789C644.437 596.702 645.811 596.152 646.909 595.054C648.008 593.955 648.558 592.513 648.558 590.728V578.368C648.558 576.583 648.008 575.209 646.909 574.248C645.811 573.149 644.437 572.6 642.789 572.6H636.815V596.702ZM284.36 359.6H239.864V367.84H284.36V380.817H239.864V389.058H286.214V442H169V299.654H284.36V359.6ZM366.548 359.6H371.491L376.023 299.654H443.386L429.583 369.899L443.386 442H376.229L370.873 394.002H366.548L361.81 442H294.859L307.837 368.664L294.859 299.654H361.397L366.548 359.6ZM527.028 299.654C551.611 299.654 569.67 303.705 581.206 311.808C592.742 319.773 598.51 333.644 598.51 353.42C598.51 369.213 594.115 381.024 585.326 388.852C577.773 395.581 565.55 399.77 548.658 401.418C541.517 402.105 533.002 402.448 523.114 402.448V442H452.25V299.654H527.028ZM523.114 380.817H529.088C530.736 380.817 532.109 380.269 533.208 379.17C534.307 378.071 534.856 376.629 534.856 374.844V365.368C534.856 363.583 534.307 362.209 533.208 361.248C532.109 360.149 530.736 359.6 529.088 359.6H523.114V380.817Z" fill="#342927"/>
</svg>
