<svg width="307" height="48" viewBox="0 0 307 48" fill="none" xmlns="http://www.w3.org/2000/svg">
<path d="M52.4062 10.0225L45.1592 29.5068H51V32.5068H44.5V37.5H41.5V32.5068H35V29.5068H40.8408L33.5938 10.0225L36.4062 8.97754L43 26.7031L49.5938 8.97754L52.4062 10.0225Z" fill="#F62F20"/>
<path fill-rule="evenodd" clip-rule="evenodd" d="M43.5 0.5C67.5244 0.5 87 11.0213 87 24C87 36.9787 67.5244 47.5 43.5 47.5C19.4756 47.5 0 36.9787 0 24C0 11.0213 19.4756 0.5 43.5 0.5ZM43.5 3.45898C31.8811 3.45898 21.5086 6.00964 14.1475 9.98633C6.66796 14.027 2.95898 19.116 2.95898 24C2.95898 28.884 6.66796 33.973 14.1475 38.0137C21.5086 41.9904 31.8811 44.541 43.5 44.541C55.1189 44.541 65.4914 41.9904 72.8525 38.0137C80.332 33.973 84.041 28.884 84.041 24C84.041 19.116 80.332 14.027 72.8525 9.98633C65.4914 6.00964 55.1189 3.45898 43.5 3.45898Z" fill="#F62F20"/>
<path d="M106.38 18H103.14L99.2 5.12H101.96L102.28 6.82L104.72 15.48H104.9L107.7 6.96L108.04 5.12H110.72L106.38 18ZM121.574 18H118.814L118.494 16.32L118.154 15.12L115.634 15.06L113.414 15.12L113.074 16.18L112.734 18H110.054L114.414 5.12H117.634L121.574 18ZM117.574 13.02L116.054 7.66H115.874L114.114 13.02L115.834 13.06L117.574 13.02ZM130.306 15.98L130.126 18H123.166L123.306 14.16L123.166 5.12H125.926L125.766 13.92L125.826 15.76H130.146L130.306 15.98ZM139.798 15.76L139.958 15.98L139.778 18H131.698L131.838 14.16L131.698 5.12H139.858L140.018 5.34L139.818 7.36L136.738 7.26L134.418 7.28L134.358 10.38L136.578 10.42L138.678 10.36L138.838 10.56L138.658 12.58L136.378 12.52L134.318 12.54L134.298 13.92L134.358 15.86L136.618 15.88L139.798 15.76ZM148.434 12.88C149.474 14.5333 150.507 16.0267 151.534 17.36L151.494 17.66C150.627 17.9667 149.741 18.1467 148.834 18.2L148.554 17.98C147.594 16.3267 146.814 14.8867 146.214 13.66H144.274V13.92L144.394 18H141.674L141.814 14.16L141.674 5.12L146.614 5.1C147.961 5.1 149.001 5.43333 149.734 6.1C150.467 6.75333 150.834 7.69333 150.834 8.92C150.834 9.74667 150.621 10.5067 150.194 11.2C149.781 11.88 149.194 12.44 148.434 12.88ZM144.314 11.56L146.294 11.64C147.427 11.2533 147.994 10.4333 147.994 9.18C147.994 8.5 147.807 7.99333 147.434 7.66C147.074 7.31333 146.514 7.12667 145.754 7.1L144.394 7.18L144.314 11.56ZM155.871 13.92L155.991 18H153.271L153.411 14.16L153.271 5.12H156.031L155.871 13.92ZM164.069 14.42L164.189 18H161.489L161.609 14.42L161.589 13.66L157.489 5.12H160.369L160.649 6.02L162.829 10.92H163.009L165.449 6.1L165.829 5.12H168.609L164.109 13.56L164.069 14.42ZM178.928 18H176.168L175.848 16.32L175.508 15.12L172.988 15.06L170.768 15.12L170.428 16.18L170.088 18H167.408L171.768 5.12H174.988L178.928 18ZM174.928 13.02L173.408 7.66H173.228L171.468 13.02L173.188 13.06L174.928 13.02ZM105.92 35.2C107.347 37.1867 108.993 39.2667 110.86 41.44L110.82 41.74C110.073 41.9267 109.193 42.08 108.18 42.2L107.86 42.04C106.113 39.72 104.56 37.4933 103.2 35.36L103.16 37.92L103.26 42H100.56L100.7 38.16L100.56 29.12H103.3L103.2 35.1L106.82 30.36L107.56 29.12H110.48L105.92 35.2ZM116.71 28.94C118.523 28.94 119.917 29.4933 120.89 30.6C121.877 31.6933 122.37 33.2533 122.37 35.28C122.37 37.4933 121.837 39.2 120.77 40.4C119.703 41.6 118.197 42.2 116.25 42.2C114.45 42.2 113.057 41.64 112.07 40.52C111.097 39.3867 110.61 37.7867 110.61 35.72C110.61 33.5467 111.137 31.8733 112.19 30.7C113.257 29.5267 114.763 28.94 116.71 28.94ZM116.47 31.12C115.403 31.12 114.63 31.4533 114.15 32.12C113.67 32.7867 113.43 33.8733 113.43 35.38C113.43 37.1 113.663 38.3267 114.13 39.06C114.61 39.7933 115.397 40.16 116.49 40.16C117.557 40.16 118.33 39.8267 118.81 39.16C119.29 38.48 119.53 37.3733 119.53 35.84C119.53 34.1467 119.29 32.94 118.81 32.22C118.343 31.4867 117.563 31.12 116.47 31.12ZM128.402 28.96C129.495 28.96 130.582 29.18 131.662 29.62L131.222 31.96L130.822 32.12C130.368 31.8 129.895 31.5467 129.402 31.36C128.922 31.1733 128.482 31.08 128.082 31.08C127.548 31.08 127.122 31.2267 126.802 31.52C126.482 31.8 126.322 32.1267 126.322 32.5C126.322 32.8867 126.495 33.2133 126.842 33.48C127.202 33.7467 127.762 34.06 128.522 34.42C129.255 34.7533 129.848 35.0667 130.302 35.36C130.768 35.64 131.162 36.0133 131.482 36.48C131.815 36.9467 131.982 37.52 131.982 38.2C131.982 38.9333 131.782 39.6067 131.382 40.22C130.982 40.82 130.415 41.3 129.682 41.66C128.948 42.0067 128.102 42.18 127.142 42.18C125.875 42.18 124.602 41.9067 123.322 41.36L123.702 38.84L124.002 38.68C124.535 39.1467 125.115 39.5067 125.742 39.76C126.382 40 126.948 40.12 127.442 40.12C128.028 40.12 128.482 39.98 128.802 39.7C129.135 39.4067 129.302 39.06 129.302 38.66C129.302 38.2333 129.122 37.8867 128.762 37.62C128.415 37.3533 127.848 37.0333 127.062 36.66C126.342 36.34 125.755 36.04 125.302 35.76C124.848 35.48 124.462 35.1067 124.142 34.64C123.822 34.1733 123.662 33.6067 123.662 32.94C123.662 32.1933 123.862 31.52 124.262 30.92C124.662 30.3067 125.222 29.8267 125.942 29.48C126.662 29.1333 127.482 28.96 128.402 28.96ZM141.989 29.34L141.829 31.36L139.409 31.24H138.609L138.509 37.92L138.629 42H135.909L136.049 38.16L135.949 31.24H135.149L132.689 31.36L132.509 31.14L132.689 29.12H141.829L141.989 29.34ZM148.727 38.42L148.847 42H146.147L146.267 38.42L146.247 37.66L142.147 29.12H145.027L145.307 30.02L147.487 34.92H147.667L150.107 30.1L150.487 29.12H153.267L148.767 37.56L148.727 38.42ZM164.48 35.66L164.46 37.36C164.473 38.8933 164.026 40.08 163.12 40.92C162.213 41.76 160.913 42.18 159.22 42.18C157.593 42.18 156.353 41.7733 155.5 40.96C154.646 40.1467 154.24 38.98 154.28 37.46L154.3 35.6L154.24 29.12H156.96L156.82 37.1C156.806 38.0733 157.013 38.7933 157.44 39.26C157.866 39.7267 158.513 39.96 159.38 39.96C161.113 39.96 161.973 39.0533 161.96 37.24L161.82 29.12H164.58L164.48 35.66ZM172.293 28.96C173.547 28.96 174.673 29.22 175.673 29.74L175.193 32L174.973 32.1C174.573 31.82 174.133 31.6 173.653 31.44C173.173 31.28 172.68 31.2 172.173 31.2C170.053 31.2 168.993 32.5933 168.993 35.38C168.993 36.8867 169.267 38.02 169.813 38.78C170.373 39.5267 171.187 39.9 172.253 39.9C172.747 39.9 173.253 39.8267 173.773 39.68C174.307 39.52 174.787 39.3067 175.213 39.04L175.453 39.18L175.233 41.48C174.22 41.9467 173.153 42.18 172.033 42.18C170.113 42.18 168.647 41.62 167.633 40.5C166.633 39.38 166.133 37.7733 166.133 35.68C166.133 33.5467 166.667 31.8933 167.733 30.72C168.813 29.5467 170.333 28.96 172.293 28.96ZM188.005 37.92L188.085 42H185.385L185.505 38.16L185.485 36.66L182.585 36.64L179.965 36.68L179.945 37.92L180.045 42H177.345L177.485 38.16L177.345 29.12H180.085L180.005 34.44L182.765 34.48L185.465 34.44L185.385 29.12H188.145L188.005 37.92ZM199.091 39.76L199.251 39.98L199.071 42H190.991L191.131 38.16L190.991 29.12H199.151L199.311 29.34L199.111 31.36L196.031 31.26L193.711 31.28L193.651 34.38L195.871 34.42L197.971 34.36L198.131 34.56L197.951 36.58L195.671 36.52L193.611 36.54L193.591 37.92L193.651 39.86L195.911 39.88L199.091 39.76ZM211.607 38.02L211.707 42H208.787L203.527 33.28H203.367L203.347 37.56L203.427 42H200.967L201.107 38.2L200.987 29.12H203.887L209.147 37.84H209.327L209.267 29.24L211.767 29.08L211.607 38.02ZM220.033 35.2C221.46 37.1867 223.107 39.2667 224.973 41.44L224.933 41.74C224.187 41.9267 223.307 42.08 222.293 42.2L221.973 42.04C220.227 39.72 218.673 37.4933 217.313 35.36L217.273 37.92L217.373 42H214.673L214.813 38.16L214.673 29.12H217.413L217.313 35.1L220.933 30.36L221.673 29.12H224.593L220.033 35.2ZM230.823 28.94C232.637 28.94 234.03 29.4933 235.003 30.6C235.99 31.6933 236.483 33.2533 236.483 35.28C236.483 37.4933 235.95 39.2 234.883 40.4C233.817 41.6 232.31 42.2 230.363 42.2C228.563 42.2 227.17 41.64 226.183 40.52C225.21 39.3867 224.723 37.7867 224.723 35.72C224.723 33.5467 225.25 31.8733 226.303 30.7C227.37 29.5267 228.877 28.94 230.823 28.94ZM230.583 31.12C229.517 31.12 228.743 31.4533 228.263 32.12C227.783 32.7867 227.543 33.8733 227.543 35.38C227.543 37.1 227.777 38.3267 228.243 39.06C228.723 39.7933 229.51 40.16 230.603 40.16C231.67 40.16 232.443 39.8267 232.923 39.16C233.403 38.48 233.643 37.3733 233.643 35.84C233.643 34.1467 233.403 32.94 232.923 32.22C232.457 31.4867 231.677 31.12 230.583 31.12Z" fill="#F62F20"/>
</svg>
