<svg width="219" height="38" viewBox="0 0 219 38" fill="none" xmlns="http://www.w3.org/2000/svg">
<path d="M31.2207 10.673L26.9033 22.2807H30.383V24.0679H26.5106V27.0426H24.7234V24.0679H20.8511V22.2807H24.3307L20.0133 10.673L21.6888 10.0504L25.617 20.6104L29.5452 10.0504L31.2207 10.673Z" fill="#F62F20"/>
<path fill-rule="evenodd" clip-rule="evenodd" d="M25.9149 5C40.2273 5 51.8298 11.268 51.8298 19C51.8298 26.732 40.2273 33 25.9149 33C11.6025 33 0 26.732 0 19C0 11.268 11.6025 5 25.9149 5ZM25.9149 6.7628C18.993 6.7628 12.8137 8.28234 8.42827 10.6514C3.9724 13.0586 1.7628 16.0904 1.7628 19C1.7628 21.9096 3.9724 24.9414 8.42827 27.3486C12.8137 29.7177 18.993 31.2372 25.9149 31.2372C32.8368 31.2372 39.0161 29.7177 43.4015 27.3486C47.8574 24.9414 50.067 21.9096 50.067 19C50.067 16.0904 47.8574 13.0586 43.4015 10.6514C39.0161 8.28234 32.8368 6.7628 25.9149 6.7628Z" fill="#F62F20"/>
<path d="M69.7341 14H67.1421L63.9901 3.696H66.1981L66.4541 5.056L68.4061 11.984H68.5501L70.7901 5.168L71.0621 3.696H73.2061L69.7341 14ZM81.8891 14H79.6811L79.4251 12.656L79.1531 11.696L77.1371 11.648L75.3611 11.696L75.0891 12.544L74.8171 14H72.6731L76.1611 3.696H78.7371L81.8891 14ZM78.6891 10.016L77.4731 5.728H77.3291L75.9211 10.016L77.2971 10.048L78.6891 10.016ZM88.8748 12.384L88.7308 14H83.1628L83.2748 10.928L83.1628 3.696H85.3708L85.2428 10.736L85.2908 12.208H88.7468L88.8748 12.384ZM96.4687 12.208L96.5967 12.384L96.4527 14H89.9887L90.1007 10.928L89.9887 3.696H96.5167L96.6447 3.872L96.4847 5.488L94.0207 5.408L92.1647 5.424L92.1167 7.904L93.8927 7.936L95.5727 7.888L95.7007 8.048L95.5567 9.664L93.7327 9.616L92.0847 9.632L92.0687 10.736L92.1167 12.288L93.9247 12.304L96.4687 12.208ZM103.377 9.904C104.209 11.2267 105.036 12.4213 105.857 13.488L105.825 13.728C105.132 13.9733 104.423 14.1173 103.697 14.16L103.473 13.984C102.705 12.6613 102.081 11.5093 101.601 10.528H100.049V10.736L100.145 14H97.9693L98.0813 10.928L97.9693 3.696L101.921 3.68C102.999 3.68 103.831 3.94667 104.417 4.48C105.004 5.00267 105.297 5.75467 105.297 6.736C105.297 7.39733 105.127 8.00533 104.785 8.56C104.455 9.104 103.985 9.552 103.377 9.904ZM100.081 8.848L101.665 8.912C102.572 8.60267 103.025 7.94667 103.025 6.944C103.025 6.4 102.876 5.99467 102.577 5.728C102.289 5.45067 101.841 5.30133 101.233 5.28L100.145 5.344L100.081 8.848ZM109.327 10.736L109.423 14H107.247L107.359 10.928L107.247 3.696H109.455L109.327 10.736ZM115.886 11.136L115.982 14H113.822L113.918 11.136L113.902 10.528L110.622 3.696H112.926L113.15 4.416L114.894 8.336H115.038L116.99 4.48L117.294 3.696H119.518L115.918 10.448L115.886 11.136ZM127.773 14H125.565L125.309 12.656L125.037 11.696L123.021 11.648L121.245 11.696L120.973 12.544L120.701 14H118.557L122.045 3.696H124.621L127.773 14ZM124.573 10.016L123.357 5.728H123.213L121.805 10.016L123.181 10.048L124.573 10.016ZM69.3661 27.56C70.5074 29.1493 71.8247 30.8133 73.3181 32.552L73.2861 32.792C72.6887 32.9413 71.9847 33.064 71.1741 33.16L70.9181 33.032C69.5207 31.176 68.2781 29.3947 67.1901 27.688L67.1581 29.736L67.2381 33H65.0781L65.1901 29.928L65.0781 22.696H67.2701L67.1901 27.48L70.0861 23.688L70.6781 22.696H73.0141L69.3661 27.56ZM77.9981 22.552C79.4487 22.552 80.5634 22.9947 81.3421 23.88C82.1314 24.7547 82.5261 26.0027 82.5261 27.624C82.5261 29.3947 82.0994 30.76 81.2461 31.72C80.3927 32.68 79.1874 33.16 77.6301 33.16C76.1901 33.16 75.0754 32.712 74.2861 31.816C73.5074 30.9093 73.1181 29.6293 73.1181 27.976C73.1181 26.2373 73.5394 24.8987 74.3821 23.96C75.2354 23.0213 76.4407 22.552 77.9981 22.552ZM77.8061 24.296C76.9527 24.296 76.3341 24.5627 75.9501 25.096C75.5661 25.6293 75.3741 26.4987 75.3741 27.704C75.3741 29.08 75.5607 30.0613 75.9341 30.648C76.3181 31.2347 76.9474 31.528 77.8221 31.528C78.6754 31.528 79.2941 31.2613 79.6781 30.728C80.0621 30.184 80.2541 29.2987 80.2541 28.072C80.2541 26.7173 80.0621 25.752 79.6781 25.176C79.3047 24.5893 78.6807 24.296 77.8061 24.296ZM87.3513 22.568C88.226 22.568 89.0953 22.744 89.9593 23.096L89.6073 24.968L89.2873 25.096C88.9247 24.84 88.546 24.6373 88.1513 24.488C87.7673 24.3387 87.4153 24.264 87.0953 24.264C86.6687 24.264 86.3273 24.3813 86.0713 24.616C85.8153 24.84 85.6873 25.1013 85.6873 25.4C85.6873 25.7093 85.826 25.9707 86.1033 26.184C86.3913 26.3973 86.8393 26.648 87.4473 26.936C88.034 27.2027 88.5087 27.4533 88.8713 27.688C89.2447 27.912 89.5593 28.2107 89.8153 28.584C90.082 28.9573 90.2153 29.416 90.2153 29.96C90.2153 30.5467 90.0553 31.0853 89.7353 31.576C89.4153 32.056 88.962 32.44 88.3753 32.728C87.7887 33.0053 87.1113 33.144 86.3433 33.144C85.33 33.144 84.3113 32.9253 83.2873 32.488L83.5913 30.472L83.8313 30.344C84.258 30.7173 84.722 31.0053 85.2233 31.208C85.7353 31.4 86.1887 31.496 86.5833 31.496C87.0527 31.496 87.4153 31.384 87.6713 31.16C87.938 30.9253 88.0713 30.648 88.0713 30.328C88.0713 29.9867 87.9273 29.7093 87.6393 29.496C87.362 29.2827 86.9087 29.0267 86.2793 28.728C85.7033 28.472 85.234 28.232 84.8713 28.008C84.5087 27.784 84.1993 27.4853 83.9433 27.112C83.6873 26.7387 83.5593 26.2853 83.5593 25.752C83.5593 25.1547 83.7193 24.616 84.0393 24.136C84.3593 23.6453 84.8073 23.2613 85.3833 22.984C85.9593 22.7067 86.6153 22.568 87.3513 22.568ZM98.221 22.872L98.093 24.488L96.157 24.392H95.517L95.437 29.736L95.533 33H93.357L93.469 29.928L93.389 24.392H92.749L90.781 24.488L90.637 24.312L90.781 22.696H98.093L98.221 22.872ZM103.612 30.136L103.708 33H101.548L101.644 30.136L101.628 29.528L98.3478 22.696H100.652L100.876 23.416L102.62 27.336H102.764L104.716 23.48L105.02 22.696H107.244L103.644 29.448L103.612 30.136ZM116.214 27.928L116.198 29.288C116.208 30.5147 115.851 31.464 115.126 32.136C114.4 32.808 113.36 33.144 112.006 33.144C110.704 33.144 109.712 32.8187 109.03 32.168C108.347 31.5173 108.022 30.584 108.054 29.368L108.07 27.88L108.022 22.696H110.198L110.086 29.08C110.075 29.8587 110.24 30.4347 110.582 30.808C110.923 31.1813 111.44 31.368 112.134 31.368C113.52 31.368 114.208 30.6427 114.198 29.192L114.086 22.696H116.294L116.214 27.928ZM122.465 22.568C123.467 22.568 124.369 22.776 125.169 23.192L124.785 25L124.609 25.08C124.289 24.856 123.937 24.68 123.553 24.552C123.169 24.424 122.774 24.36 122.369 24.36C120.673 24.36 119.825 25.4747 119.825 27.704C119.825 28.9093 120.043 29.816 120.481 30.424C120.929 31.0213 121.579 31.32 122.433 31.32C122.827 31.32 123.233 31.2613 123.649 31.144C124.075 31.016 124.459 30.8453 124.801 30.632L124.993 30.744L124.817 32.584C124.006 32.9573 123.153 33.144 122.257 33.144C120.721 33.144 119.547 32.696 118.737 31.8C117.937 30.904 117.537 29.6187 117.537 27.944C117.537 26.2373 117.963 24.9147 118.817 23.976C119.681 23.0373 120.897 22.568 122.465 22.568ZM135.034 29.736L135.098 33H132.938L133.034 29.928L133.018 28.728L130.698 28.712L128.602 28.744L128.586 29.736L128.666 33H126.506L126.618 29.928L126.506 22.696H128.698L128.634 26.952L130.842 26.984L133.002 26.952L132.938 22.696H135.146L135.034 29.736ZM143.903 31.208L144.031 31.384L143.887 33H137.423L137.535 29.928L137.423 22.696H143.951L144.079 22.872L143.919 24.488L141.455 24.408L139.599 24.424L139.551 26.904L141.327 26.936L143.007 26.888L143.135 27.048L142.991 28.664L141.167 28.616L139.519 28.632L139.503 29.736L139.551 31.288L141.359 31.304L143.903 31.208ZM153.916 29.816L153.996 33H151.66L147.452 26.024H147.324L147.308 29.448L147.372 33H145.404L145.516 29.96L145.42 22.696H147.74L151.948 29.672H152.092L152.044 22.792L154.044 22.664L153.916 29.816ZM160.657 27.56C161.798 29.1493 163.115 30.8133 164.609 32.552L164.577 32.792C163.979 32.9413 163.275 33.064 162.465 33.16L162.209 33.032C160.811 31.176 159.569 29.3947 158.481 27.688L158.449 29.736L158.529 33H156.369L156.481 29.928L156.369 22.696H158.561L158.481 27.48L161.377 23.688L161.969 22.696H164.305L160.657 27.56ZM169.289 22.552C170.739 22.552 171.854 22.9947 172.633 23.88C173.422 24.7547 173.817 26.0027 173.817 27.624C173.817 29.3947 173.39 30.76 172.537 31.72C171.683 32.68 170.478 33.16 168.921 33.16C167.481 33.16 166.366 32.712 165.577 31.816C164.798 30.9093 164.409 29.6293 164.409 27.976C164.409 26.2373 164.83 24.8987 165.673 23.96C166.526 23.0213 167.731 22.552 169.289 22.552ZM169.097 24.296C168.243 24.296 167.625 24.5627 167.241 25.096C166.857 25.6293 166.665 26.4987 166.665 27.704C166.665 29.08 166.851 30.0613 167.225 30.648C167.609 31.2347 168.238 31.528 169.113 31.528C169.966 31.528 170.585 31.2613 170.969 30.728C171.353 30.184 171.545 29.2987 171.545 28.072C171.545 26.7173 171.353 25.752 170.969 25.176C170.595 24.5893 169.971 24.296 169.097 24.296Z" fill="#F62F20"/>
</svg>
