<svg width="987" height="974" viewBox="0 0 987 974" fill="none" xmlns="http://www.w3.org/2000/svg">
<path d="M987 895.233L889.45 820.008L791.9 895.233L889.45 974L987 895.233Z" fill="#F62F20"/>
<path d="M791.906 895.233L710.202 820.008L628.498 895.233L710.202 974L791.906 895.233Z" fill="#F62F20"/>
<path d="M628.945 895.233L557.144 820.008L485.344 895.233L557.144 974L628.945 895.233Z" fill="#F62F20"/>
<path d="M485.274 895.233L424.863 820.008L364.451 895.233L424.863 974L485.274 895.233Z" fill="#F62F20"/>
<path d="M365.44 895.233L312.457 820.008L259.473 895.233L312.457 974L365.44 895.233Z" fill="#F62F20"/>
<path d="M259.472 895.233L219.858 820.008L180.244 895.233L219.858 974L259.472 895.233Z" fill="#F62F20"/>
<path d="M180.244 895.233L150.038 820.008L119.832 895.233L150.038 974L180.244 895.233Z" fill="#F62F20"/>
<path d="M119.832 895.233L95.5683 820.008L71.3047 895.233L95.5684 974L119.832 895.233Z" fill="#F62F20"/>
<path d="M71.3057 895.233L51.0034 820.008L30.7012 895.233L51.0034 974L71.3057 895.233Z" fill="#F62F20"/>
<path d="M30.701 895.233L15.3505 820.008L0 895.233L15.3505 974L30.701 895.233Z" fill="#F62F20"/>
<path d="M987 719.581L889.45 623.668L791.9 719.581L889.45 820.008L987 719.581Z" fill="#F62F20"/>
<path d="M791.906 719.581L710.202 623.668L628.498 719.581L710.202 820.008L791.906 719.581Z" fill="#F62F20"/>
<path d="M628.945 719.581L557.144 623.668L485.344 719.581L557.144 820.008L628.945 719.581Z" fill="#F62F20"/>
<path d="M485.274 719.581L424.863 623.668L364.451 719.581L424.863 820.008L485.274 719.581Z" fill="#F62F20"/>
<path d="M365.44 719.581L312.457 623.668L259.473 719.581L312.457 820.008L365.44 719.581Z" fill="#F62F20"/>
<path d="M259.472 719.581L219.858 623.668L180.244 719.581L219.858 820.008L259.472 719.581Z" fill="#F62F20"/>
<path d="M180.246 719.581L150.04 623.668L119.834 719.581L150.04 820.008L180.246 719.581Z" fill="#F62F20"/>
<path d="M119.834 719.581L95.5703 623.668L71.3066 719.581L95.5703 820.008L119.834 719.581Z" fill="#F62F20"/>
<path d="M71.3057 719.581L51.0034 623.668L30.7012 719.581L51.0034 820.008L71.3057 719.581Z" fill="#F62F20"/>
<path d="M30.701 719.581L15.3505 623.668L0 719.581L15.3505 820.008L30.701 719.581Z" fill="#F62F20"/>
<path d="M987 491.733L889.45 365.73L791.9 491.733L889.45 623.667L987 491.733Z" fill="#F62F20"/>
<path d="M791.906 491.733L710.202 365.73L628.498 491.733L710.202 623.667L791.906 491.733Z" fill="#F62F20"/>
<path d="M628.945 491.733L557.144 365.73L485.344 491.733L557.144 623.667L628.945 491.733Z" fill="#F62F20"/>
<path d="M485.274 491.733L424.863 365.73L364.451 491.733L424.863 623.667L485.274 491.733Z" fill="#F62F20"/>
<path d="M365.44 491.733L312.457 365.73L259.473 491.733L312.457 623.667L365.44 491.733Z" fill="#F62F20"/>
<path d="M259.472 491.733L219.858 365.73L180.244 491.733L219.858 623.667L259.472 491.733Z" fill="#F62F20"/>
<path d="M180.246 491.733L150.04 365.73L119.834 491.733L150.04 623.667L180.246 491.733Z" fill="#F62F20"/>
<path d="M119.834 491.733L95.5703 365.73L71.3066 491.733L95.5703 623.667L119.834 491.733Z" fill="#F62F20"/>
<path d="M71.3057 491.733L51.0034 365.73L30.7012 491.733L51.0034 623.667L71.3057 491.733Z" fill="#F62F20"/>
<path d="M30.701 491.733L15.3505 365.73L0 491.733L15.3505 623.667L30.701 491.733Z" fill="#F62F20"/>
<path d="M987 180.541L889.45 0L791.9 180.541L889.45 369.581L987 180.541Z" fill="#F62F20"/>
<path d="M791.906 180.541L710.202 0L628.498 180.541L710.202 369.581L791.906 180.541Z" fill="#F62F20"/>
<path d="M628.945 180.541L557.144 0L485.344 180.541L557.144 369.581L628.945 180.541Z" fill="#F62F20"/>
<path d="M485.274 180.541L424.863 0L364.451 180.541L424.863 369.581L485.274 180.541Z" fill="#F62F20"/>
<path d="M365.44 180.541L312.457 0L259.473 180.541L312.457 369.581L365.44 180.541Z" fill="#F62F20"/>
<path d="M259.472 180.541L219.858 0L180.244 180.541L219.858 369.581L259.472 180.541Z" fill="#F62F20"/>
<path d="M180.246 180.541L150.04 0L119.834 180.541L150.04 369.581L180.246 180.541Z" fill="#F62F20"/>
<path d="M119.834 180.541L95.5703 0L71.3066 180.541L95.5703 369.581L119.834 180.541Z" fill="#F62F20"/>
<path d="M71.3057 180.541L51.0034 0L30.7012 180.541L51.0034 369.581L71.3057 180.541Z" fill="#F62F20"/>
<path d="M30.701 180.541L15.3505 0L0 180.541L15.3505 369.581L30.701 180.541Z" fill="#F62F20"/>
</svg>
