<svg width="44" height="44" viewBox="0 0 44 44" fill="none" xmlns="http://www.w3.org/2000/svg">
<path d="M36.0795 3.51953H7.91953C5.49073 3.51953 3.51953 5.49073 3.51953 7.91953V36.0795C3.51953 38.5083 5.49073 40.4795 7.91953 40.4795H36.0795C38.5083 40.4795 40.4795 38.5083 40.4795 36.0795V7.91953C40.4795 5.49073 38.5083 3.51953 36.0795 3.51953ZM14.9595 17.5995V34.3195H9.67953V17.5995H14.9595ZM9.67953 12.7331C9.67953 11.5011 10.7355 10.5595 12.3195 10.5595C13.9035 10.5595 14.8979 11.5011 14.9595 12.7331C14.9595 13.9651 13.9739 14.9595 12.3195 14.9595C10.7355 14.9595 9.67953 13.9651 9.67953 12.7331ZM34.3195 34.3195H29.0395C29.0395 34.3195 29.0395 26.1707 29.0395 25.5195C29.0395 23.7595 28.1595 21.9995 25.9595 21.9643H25.8891C23.7595 21.9643 22.8795 23.7771 22.8795 25.5195C22.8795 26.3203 22.8795 34.3195 22.8795 34.3195H17.5995V17.5995H22.8795V19.8523C22.8795 19.8523 24.5779 17.5995 27.9923 17.5995C31.4859 17.5995 34.3195 20.0019 34.3195 24.8683V34.3195Z" fill="#F62F20"/>
</svg>
