<svg width="44" height="44" viewBox="0 0 44 44" fill="none" xmlns="http://www.w3.org/2000/svg">
<path d="M21.8145 1.81494C10.7661 1.81494 1.81445 10.7666 1.81445 21.8149C1.81445 32.8633 10.7661 41.8149 21.8145 41.8149C32.8628 41.8149 41.8145 32.8633 41.8145 21.8149C41.8145 10.7666 32.8628 1.81494 21.8145 1.81494ZM31.637 15.5166L28.3548 30.9843C28.1128 32.0811 27.4596 32.3472 26.5483 31.8311L21.5483 28.1456L19.137 30.4682C18.8709 30.7343 18.6451 30.9601 18.129 30.9601L18.4838 25.8714L27.7499 17.5004C28.1532 17.1456 27.6612 16.944 27.129 17.2988L15.6774 24.5085L10.7419 22.9682C9.66929 22.6295 9.6451 21.8956 10.9677 21.3795L30.2499 13.944C31.1451 13.6214 31.9274 14.1617 31.637 15.5166Z" fill="#F62F20"/>
</svg>
